{"asset":{"generator":"3D Builder","version":"2.0"},"scene":0,"scenes":[{"nodes":[0]}],"nodes":[{"children":[1,2,3,4,5,6,7,8,9,10,11,12,13,14,15,16,17,18,19]},{"mesh":0,"matrix":[1,0,0,0,0,-1.1920928955078125E-7,-0.99999988079071045,0,0,0.99999988079071045,-1.1920928955078125E-7,0,-0.11468100547790527,-0.01228089164942503,0.053593989461660385,1]},{"mesh":1,"matrix":[1,0,0,0,0,-1.1920928955078125E-7,-0.99999988079071045,0,0,0.99999988079071045,-1.1920928955078125E-7,0,-0.11468100547790527,-0.01228089164942503,0.053593989461660385,1]},{"mesh":2,"matrix":[1,0,0,0,0,-1.1920928955078125E-7,-0.99999988079071045,0,0,0.99999988079071045,-1.1920928955078125E-7,0,-0.11468100547790527,-0.01228089164942503,0.053593989461660385,1]},{"mesh":3,"matrix":[1,0,0,0,0,-1.1920928955078125E-7,-0.99999988079071045,0,0,0.99999988079071045,-1.1920928955078125E-7,0,-0.11468100547790527,-0.01228089164942503,0.053593989461660385,1]},{"mesh":4,"matrix":[1,0,0,0,0,-1.1920928955078125E-7,-0.99999988079071045,0,0,0.99999988079071045,-1.1920928955078125E-7,0,-0.11468100547790527,-0.01228089164942503,0.053593989461660385,1]},{"mesh":5,"matrix":[1,0,0,0,0,-1.1920928955078125E-7,-0.99999988079071045,0,0,0.99999988079071045,-1.1920928955078125E-7,0,-0.11468100547790527,-0.01228089164942503,0.053593989461660385,1]},{"mesh":6,"matrix":[1,0,0,0,0,-1.1920928955078125E-7,-0.99999988079071045,0,0,0.99999988079071045,-1.1920928955078125E-7,0,-0.11468100547790527,-0.01228089164942503,0.053593989461660385,1]},{"mesh":7,"matrix":[1,0,0,0,0,-1.1920928955078125E-7,-0.99999988079071045,0,0,0.99999988079071045,-1.1920928955078125E-7,0,-0.11468100547790527,-0.01228089164942503,0.053593989461660385,1]},{"mesh":8,"matrix":[1,0,0,0,0,-1.1920928955078125E-7,-0.99999988079071045,0,0,0.99999988079071045,-1.1920928955078125E-7,0,-0.11468100547790527,-0.01228089164942503,0.053593989461660385,1]},{"mesh":9,"matrix":[1,0,0,0,0,-1.1920928955078125E-7,-0.99999988079071045,0,0,0.99999988079071045,-1.1920928955078125E-7,0,-0.11468100547790527,-0.01228089164942503,0.053593989461660385,1]},{"mesh":10,"matrix":[1,0,0,0,0,-1.1920928955078125E-7,-0.99999988079071045,0,0,0.99999988079071045,-1.1920928955078125E-7,0,-0.11468100547790527,-0.01228089164942503,0.053593989461660385,1]},{"mesh":11,"matrix":[1,0,0,0,0,-1.1920928955078125E-7,-0.99999988079071045,0,0,0.99999988079071045,-1.1920928955078125E-7,0,-0.11468100547790527,-0.01228089164942503,0.053593989461660385,1]},{"mesh":12,"matrix":[1,0,0,0,0,-1.1920928955078125E-7,-0.99999988079071045,0,0,0.99999988079071045,-1.1920928955078125E-7,0,-0.11468100547790527,-0.01228089164942503,0.053593989461660385,1]},{"mesh":13,"matrix":[1,0,0,0,0,-1.1920928955078125E-7,-0.99999988079071045,0,0,0.99999988079071045,-1.1920928955078125E-7,0,-0.11468100547790527,-0.01228089164942503,0.053593989461660385,1]},{"mesh":14,"matrix":[1,0,0,0,0,-1.1920928955078125E-7,-0.99999988079071045,0,0,0.99999988079071045,-1.1920928955078125E-7,0,-0.11468100547790527,-0.01228089164942503,0.053593989461660385,1]},{"mesh":15,"matrix":[1,0,0,0,0,-1.1920928955078125E-7,-0.99999988079071045,0,0,0.99999988079071045,-1.1920928955078125E-7,0,-0.11468100547790527,-0.01228089164942503,0.053593989461660385,1]},{"mesh":16,"matrix":[1,0,0,0,0,-1.1920928955078125E-7,-0.99999988079071045,0,0,0.99999988079071045,-1.1920928955078125E-7,0,-0.11468100547790527,-0.01228089164942503,0.053593989461660385,1]},{"mesh":17,"matrix":[1,0,0,0,0,-1.1920928955078125E-7,-0.99999988079071045,0,0,0.99999988079071045,-1.1920928955078125E-7,0,-0.11468100547790527,-0.01228089164942503,0.053593989461660385,1]},{"mesh":18,"matrix":[1,0,0,0,0,-1.1920928955078125E-7,-0.99999988079071045,0,0,0.99999988079071045,-1.1920928955078125E-7,0,-0.11468100547790527,-0.01228089164942503,0.053593989461660385,1]}],"meshes":[{"primitives":[{"attributes":{"POSITION":0,"TEXCOORD_0":1},"mode":4,"indices":2,"material":0}]},{"primitives":[{"attributes":{"POSITION":3,"TEXCOORD_0":4},"mode":4,"indices":5,"material":0}]},{"primitives":[{"attributes":{"POSITION":6,"TEXCOORD_0":7},"mode":4,"indices":8,"material":0}]},{"primitives":[{"attributes":{"POSITION":9,"TEXCOORD_0":10},"mode":4,"indices":11,"material":0}]},{"primitives":[{"attributes":{"POSITION":12,"TEXCOORD_0":13},"mode":4,"indices":14,"material":0}]},{"primitives":[{"attributes":{"POSITION":15,"TEXCOORD_0":16},"mode":4,"indices":17,"material":0}]},{"primitives":[{"attributes":{"POSITION":18,"TEXCOORD_0":19},"mode":4,"indices":20,"material":0}]},{"primitives":[{"attributes":{"POSITION":21,"TEXCOORD_0":22},"mode":4,"indices":23,"material":0}]},{"primitives":[{"attributes":{"POSITION":24,"TEXCOORD_0":25},"mode":4,"indices":26,"material":0}]},{"primitives":[{"attributes":{"POSITION":27,"TEXCOORD_0":28},"mode":4,"indices":29,"material":0}]},{"primitives":[{"attributes":{"POSITION":30,"TEXCOORD_0":31},"mode":4,"indices":32,"material":0}]},{"primitives":[{"attributes":{"POSITION":33,"TEXCOORD_0":34},"mode":4,"indices":35,"material":0}]},{"primitives":[{"attributes":{"POSITION":36,"TEXCOORD_0":37},"mode":4,"indices":38,"material":0}]},{"primitives":[{"attributes":{"POSITION":39,"TEXCOORD_0":40},"mode":4,"indices":41,"material":0}]},{"primitives":[{"attributes":{"POSITION":42,"TEXCOORD_0":43},"mode":4,"indices":44,"material":0}]},{"primitives":[{"attributes":{"POSITION":45,"TEXCOORD_0":46},"mode":4,"indices":47,"material":0}]},{"primitives":[{"attributes":{"POSITION":48,"TEXCOORD_0":49},"mode":4,"indices":50,"material":0}]},{"primitives":[{"attributes":{"POSITION":51,"TEXCOORD_0":52},"mode":4,"indices":53,"material":0}]},{"primitives":[{"attributes":{"POSITION":54,"TEXCOORD_0":55},"mode":4,"indices":56,"material":0}]}],"materials":[{"pbrMetallicRoughness":{"baseColorFactor":[1,1,1,1],"metallicFactor":0,"roughnessFactor":1,"baseColorTexture":{"index":0,"texCoord":0}},"alphaMode":"OPAQUE"}],"textures":[{"source":0,"sampler":0}],"images":[{"uri":"texture.png"}],"samplers":[{"magFilter":9729,"wrapS":10497,"wrapT":10497}],"accessors":[{"bufferView":0,"byteOffset":0,"count":106,"componentType":5126,"type":"VEC3","min":[0,0,0],"max":[0.22936201095581055,0.10718799382448196,0.024561800062656403]},{"bufferView":1,"byteOffset":0,"count":106,"componentType":5126,"type":"VEC2"},{"bufferView":2,"byteOffset":0,"count":636,"componentType":5125,"type":"SCALAR"},{"bufferView":3,"byteOffset":0,"count":6,"componentType":5126,"type":"VEC3","min":[0.060960002243518829,0.034797992557287216,0],"max":[0.067055992782115936,0.035051997750997543,0.024561800062656403]},{"bufferView":4,"byteOffset":0,"count":6,"componentType":5126,"type":"VEC2"},{"bufferView":5,"byteOffset":0,"count":24,"componentType":5125,"type":"SCALAR"},{"bufferView":6,"byteOffset":0,"count":6,"componentType":5126,"type":"VEC3","min":[0.051054000854492188,0.037591997534036636,0],"max":[0.051117502152919769,0.038353994488716125,0.024561800062656403]},{"bufferView":7,"byteOffset":0,"count":6,"componentType":5126,"type":"VEC2"},{"bufferView":8,"byteOffset":0,"count":24,"componentType":5125,"type":"SCALAR"},{"bufferView":9,"byteOffset":0,"count":6,"componentType":5126,"type":"VEC3","min":[0.18008598685264587,0.037845995277166367,0],"max":[0.18059399724006653,0.038549378514289856,0.024561800062656403]},{"bufferView":10,"byteOffset":0,"count":6,"componentType":5126,"type":"VEC2"},{"bufferView":11,"byteOffset":0,"count":24,"componentType":5125,"type":"SCALAR"},{"bufferView":12,"byteOffset":0,"count":6,"componentType":5126,"type":"VEC3","min":[0.1803399920463562,0.038549378514289856,0],"max":[0.18059399724006653,0.039623994380235672,0.024561800062656403]},{"bufferView":13,"byteOffset":0,"count":6,"componentType":5126,"type":"VEC2"},{"bufferView":14,"byteOffset":0,"count":24,"componentType":5125,"type":"SCALAR"},{"bufferView":15,"byteOffset":0,"count":286,"componentType":5126,"type":"VEC3","min":[0.0073660006746649742,0.0086359959095716476,0],"max":[0.21970999240875244,0.10083799064159393,0.024561800062656403]},{"bufferView":16,"byteOffset":0,"count":286,"componentType":5126,"type":"VEC2"},{"bufferView":17,"byteOffset":0,"count":1716,"componentType":5125,"type":"SCALAR"},{"bufferView":18,"byteOffset":0,"count":22,"componentType":5126,"type":"VEC3","min":[0.067563995718956,0.062229994684457779,0],"max":[0.087883993983268738,0.10083799064159393,0.024561800062656403]},{"bufferView":19,"byteOffset":0,"count":22,"componentType":5126,"type":"VEC2"},{"bufferView":20,"byteOffset":0,"count":120,"componentType":5125,"type":"SCALAR"},{"bufferView":21,"byteOffset":0,"count":14,"componentType":5126,"type":"VEC3","min":[0.08966200053691864,0.062229994684457779,0],"max":[0.098297998309135437,0.10083799064159393,0.024561800062656403]},{"bufferView":22,"byteOffset":0,"count":14,"componentType":5126,"type":"VEC2"},{"bufferView":23,"byteOffset":0,"count":72,"componentType":5125,"type":"SCALAR"},{"bufferView":24,"byteOffset":0,"count":58,"componentType":5126,"type":"VEC3","min":[0.14503400027751923,0.022351996973156929,0],"max":[0.17094200849533081,0.057911992073059082,0.024561800062656403]},{"bufferView":25,"byteOffset":0,"count":58,"componentType":5126,"type":"VEC2"},{"bufferView":26,"byteOffset":0,"count":348,"componentType":5125,"type":"SCALAR"},{"bufferView":27,"byteOffset":0,"count":56,"componentType":5126,"type":"VEC3","min":[0.11785599589347839,0.022351996973156929,0],"max":[0.1422400027513504,0.057911992073059082,0.024561800062656403]},{"bufferView":28,"byteOffset":0,"count":56,"componentType":5126,"type":"VEC2"},{"bufferView":29,"byteOffset":0,"count":360,"componentType":5125,"type":"SCALAR"},{"bufferView":30,"byteOffset":0,"count":46,"componentType":5126,"type":"VEC3","min":[0.089153997600078583,0.022351996973156929,0],"max":[0.11353799700737,0.057911992073059082,0.024561800062656403]},{"bufferView":31,"byteOffset":0,"count":46,"componentType":5126,"type":"VEC2"},{"bufferView":32,"byteOffset":0,"count":276,"componentType":5125,"type":"SCALAR"},{"bufferView":33,"byteOffset":0,"count":6,"componentType":5126,"type":"VEC3","min":[0.097027994692325592,0.031241996213793755,0],"max":[0.097281999886035919,0.034035995602607727,0.024561800062656403]},{"bufferView":34,"byteOffset":0,"count":6,"componentType":5126,"type":"VEC2"},{"bufferView":35,"byteOffset":0,"count":24,"componentType":5125,"type":"SCALAR"},{"bufferView":36,"byteOffset":0,"count":64,"componentType":5126,"type":"VEC3","min":[0.059436004608869553,0.022351996973156929,0],"max":[0.085090003907680511,0.057911992073059082,0.024561800062656403]},{"bufferView":37,"byteOffset":0,"count":64,"componentType":5126,"type":"VEC2"},{"bufferView":38,"byteOffset":0,"count":372,"componentType":5125,"type":"SCALAR"},{"bufferView":39,"byteOffset":0,"count":6,"componentType":5126,"type":"VEC3","min":[0.0078739998862147331,0.0607059970498085,0],"max":[0.0079828575253486633,0.061467994004487991,0.024561800062656403]},{"bufferView":40,"byteOffset":0,"count":6,"componentType":5126,"type":"VEC2"},{"bufferView":41,"byteOffset":0,"count":24,"componentType":5125,"type":"SCALAR"},{"bufferView":42,"byteOffset":0,"count":50,"componentType":5126,"type":"VEC3","min":[0.10159999877214432,0.062229994684457779,0],"max":[0.12293598800897598,0.10083799064159393,0.024561800062656403]},{"bufferView":43,"byteOffset":0,"count":50,"componentType":5126,"type":"VEC2"},{"bufferView":44,"byteOffset":0,"count":288,"componentType":5125,"type":"SCALAR"},{"bufferView":45,"byteOffset":0,"count":68,"componentType":5126,"type":"VEC3","min":[0.12446001172065735,0.062229994684457779,0],"max":[0.14630399644374847,0.10083799064159393,0.024561800062656403]},{"bufferView":46,"byteOffset":0,"count":68,"componentType":5126,"type":"VEC2"},{"bufferView":47,"byteOffset":0,"count":408,"componentType":5125,"type":"SCALAR"},{"bufferView":48,"byteOffset":0,"count":46,"componentType":5126,"type":"VEC3","min":[0.042925998568534851,0.062229994684457779,0],"max":[0.065786004066467285,0.10083799064159393,0.024561800062656403]},{"bufferView":49,"byteOffset":0,"count":46,"componentType":5126,"type":"VEC2"},{"bufferView":50,"byteOffset":0,"count":276,"componentType":5125,"type":"SCALAR"},{"bufferView":51,"byteOffset":0,"count":24,"componentType":5126,"type":"VEC3","min":[0.14401799440383911,0.062229994684457779,0],"max":[0.16408400237560272,0.10083799064159393,0.024561800062656403]},{"bufferView":52,"byteOffset":0,"count":24,"componentType":5126,"type":"VEC2"},{"bufferView":53,"byteOffset":0,"count":132,"componentType":5125,"type":"SCALAR"},{"bufferView":54,"byteOffset":0,"count":60,"componentType":5126,"type":"VEC3","min":[0.16586200892925262,0.062229994684457779,0],"max":[0.18948401510715485,0.10083799064159393,0.024561800062656403]},{"bufferView":55,"byteOffset":0,"count":60,"componentType":5126,"type":"VEC2"},{"bufferView":56,"byteOffset":0,"count":360,"componentType":5125,"type":"SCALAR"}],"bufferViews":[{"buffer":0,"byteOffset":0,"byteLength":1272,"byteStride":12,"target":34962},{"buffer":0,"byteOffset":1272,"byteLength":848,"byteStride":8,"target":34962},{"buffer":0,"byteOffset":2120,"byteLength":2544,"target":34963},{"buffer":0,"byteOffset":4664,"byteLength":72,"byteStride":12,"target":34962},{"buffer":0,"byteOffset":4736,"byteLength":48,"byteStride":8,"target":34962},{"buffer":0,"byteOffset":4784,"byteLength":96,"target":34963},{"buffer":0,"byteOffset":4880,"byteLength":72,"byteStride":12,"target":34962},{"buffer":0,"byteOffset":4952,"byteLength":48,"byteStride":8,"target":34962},{"buffer":0,"byteOffset":5000,"byteLength":96,"target":34963},{"buffer":0,"byteOffset":5096,"byteLength":72,"byteStride":12,"target":34962},{"buffer":0,"byteOffset":5168,"byteLength":48,"byteStride":8,"target":34962},{"buffer":0,"byteOffset":5216,"byteLength":96,"target":34963},{"buffer":0,"byteOffset":5312,"byteLength":72,"byteStride":12,"target":34962},{"buffer":0,"byteOffset":5384,"byteLength":48,"byteStride":8,"target":34962},{"buffer":0,"byteOffset":5432,"byteLength":96,"target":34963},{"buffer":0,"byteOffset":5528,"byteLength":3432,"byteStride":12,"target":34962},{"buffer":0,"byteOffset":8960,"byteLength":2288,"byteStride":8,"target":34962},{"buffer":0,"byteOffset":11248,"byteLength":6864,"target":34963},{"buffer":0,"byteOffset":18112,"byteLength":264,"byteStride":12,"target":34962},{"buffer":0,"byteOffset":18376,"byteLength":176,"byteStride":8,"target":34962},{"buffer":0,"byteOffset":18552,"byteLength":480,"target":34963},{"buffer":0,"byteOffset":19032,"byteLength":168,"byteStride":12,"target":34962},{"buffer":0,"byteOffset":19200,"byteLength":112,"byteStride":8,"target":34962},{"buffer":0,"byteOffset":19312,"byteLength":288,"target":34963},{"buffer":0,"byteOffset":19600,"byteLength":696,"byteStride":12,"target":34962},{"buffer":0,"byteOffset":20296,"byteLength":464,"byteStride":8,"target":34962},{"buffer":0,"byteOffset":20760,"byteLength":1392,"target":34963},{"buffer":0,"byteOffset":22152,"byteLength":672,"byteStride":12,"target":34962},{"buffer":0,"byteOffset":22824,"byteLength":448,"byteStride":8,"target":34962},{"buffer":0,"byteOffset":23272,"byteLength":1440,"target":34963},{"buffer":0,"byteOffset":24712,"byteLength":552,"byteStride":12,"target":34962},{"buffer":0,"byteOffset":25264,"byteLength":368,"byteStride":8,"target":34962},{"buffer":0,"byteOffset":25632,"byteLength":1104,"target":34963},{"buffer":0,"byteOffset":26736,"byteLength":72,"byteStride":12,"target":34962},{"buffer":0,"byteOffset":26808,"byteLength":48,"byteStride":8,"target":34962},{"buffer":0,"byteOffset":26856,"byteLength":96,"target":34963},{"buffer":0,"byteOffset":26952,"byteLength":768,"byteStride":12,"target":34962},{"buffer":0,"byteOffset":27720,"byteLength":512,"byteStride":8,"target":34962},{"buffer":0,"byteOffset":28232,"byteLength":1488,"target":34963},{"buffer":0,"byteOffset":29720,"byteLength":72,"byteStride":12,"target":34962},{"buffer":0,"byteOffset":29792,"byteLength":48,"byteStride":8,"target":34962},{"buffer":0,"byteOffset":29840,"byteLength":96,"target":34963},{"buffer":0,"byteOffset":29936,"byteLength":600,"byteStride":12,"target":34962},{"buffer":0,"byteOffset":30536,"byteLength":400,"byteStride":8,"target":34962},{"buffer":0,"byteOffset":30936,"byteLength":1152,"target":34963},{"buffer":0,"byteOffset":32088,"byteLength":816,"byteStride":12,"target":34962},{"buffer":0,"byteOffset":32904,"byteLength":544,"byteStride":8,"target":34962},{"buffer":0,"byteOffset":33448,"byteLength":1632,"target":34963},{"buffer":0,"byteOffset":35080,"byteLength":552,"byteStride":12,"target":34962},{"buffer":0,"byteOffset":35632,"byteLength":368,"byteStride":8,"target":34962},{"buffer":0,"byteOffset":36000,"byteLength":1104,"target":34963},{"buffer":0,"byteOffset":37104,"byteLength":288,"byteStride":12,"target":34962},{"buffer":0,"byteOffset":37392,"byteLength":192,"byteStride":8,"target":34962},{"buffer":0,"byteOffset":37584,"byteLength":528,"target":34963},{"buffer":0,"byteOffset":38112,"byteLength":720,"byteStride":12,"target":34962},{"buffer":0,"byteOffset":38832,"byteLength":480,"byteStride":8,"target":34962},{"buffer":0,"byteOffset":39312,"byteLength":1440,"target":34963}],"buffers":[{"byteLength":40752,"uri":"motivator.bin"}]}